<svg xmlns="http://www.w3.org/2000/svg" viewBox="0 0 1000 1000" width="1000" height="1000">
<title>SYM-DIV-AUREA-001 — REDUCED-01 Invertida</title>
<rect width="1000" height="1000" fill="#202A46"/>
<path fill="#F3E7CF" d="M420 850 C405 815 380 775 340 740 C285 692 255 630 248 565 C242 500 265 425 305 335 C314 315 325 321 322 350 C312 415 300 470 306 520 C314 585 346 635 391 675 C426 706 446 740 440 783 C436 812 430 837 420 850 Z"/>
<path fill="#F3E7CF" d="M580 850 C595 815 620 775 660 740 C715 692 745 630 752 565 C758 500 735 425 695 335 C686 315 675 321 678 350 C688 415 700 470 694 520 C686 585 654 635 609 675 C574 706 554 740 560 783 C564 812 570 837 580 850 Z"/>
<path fill="#F3E7CF" fill-rule="evenodd" d="M500 775 C478 735 440 700 405 665 C360 620 345 560 365 500 C385 440 430 390 470 340 C510 290 535 245 520 160 C570 195 605 245 615 300 C625 355 610 410 625 455 C640 500 675 520 660 585 C645 645 590 690 545 730 C525 750 510 770 500 775 Z M500 410 C540 465 548 525 535 580 C528 620 513 650 500 665 C470 642 452 607 448 555 C444 500 462 450 500 410 Z"/>
</svg>
