<svg xmlns="http://www.w3.org/2000/svg" viewBox="0 0 520 48">
  <g fill="none" stroke="#9b7336" stroke-linecap="round" stroke-linejoin="round">
    <path d="M8 24h138c24 0 30-14 46-14 13 0 20 8 28 14 8-6 15-14 28-14 16 0 22 14 46 14h218" stroke-width="1.6"/>
    <path d="M8 27h160c20 0 25 10 40 10 17 0 27-11 36-21 9 10 19 21 36 21 15 0 20-10 40-10h192" stroke-width=".8" opacity=".72"/>
    <path d="M225 24 260 7l35 17-35 17Z" stroke-width="1.2"/>
    <circle cx="260" cy="24" r="6.5" stroke-width="1.1"/>
  </g>
  <g fill="#c3a059">
    <circle cx="153" cy="24" r="2.2"/>
    <circle cx="367" cy="24" r="2.2"/>
    <path d="m260 14 4 10-4 10-4-10Z"/>
  </g>
</svg>